<?xml version="1.0" encoding="UTF-8"?>
<svg id="_Слой_1" data-name="Слой 1" xmlns="http://www.w3.org/2000/svg" viewBox="0 0 842.89 601.23">
  <defs>
    <style>
      .cls-1 {
        fill: #141616;
      }

      .cls-1, .cls-2, .cls-3, .cls-4, .cls-5 {
        stroke-width: 0px;
      }

      .cls-6 {
        font-family: Play-Bold, Play;
        font-size: 161.99px;
        font-weight: 700;
      }

      .cls-6, .cls-3 {
        fill: #e14a00;
      }

      .cls-4 {
        fill: #f50;
      }

      .cls-5 {
        fill: #232828;
      }
    </style>
  </defs>
  <g>
    <polygon class="cls-4" points="173.85 600.73 .58 300.61 171.35 .5 520.39 .5 693.66 300.61 520.39 600.73 173.85 600.73"/>
    <path class="cls-2" d="M520.1,1l172.98,299.61-172.98,299.61H174.14S1.15,300.61,1.15,300.61L171.64,1h348.46M520.68,0H171.06S0,300.61,0,300.61l173.56,300.61h347.12s173.56-300.61,173.56-300.61L520.68,0h0Z"/>
  </g>
  <g>
    <polygon class="cls-1" points="177.22 592.23 8.21 299.49 174.78 6.75 515.25 6.75 684.26 299.49 515.25 592.23 177.22 592.23"/>
    <path class="cls-2" d="M514.96,7.25l168.73,292.24-168.72,292.24H177.51S8.79,299.49,8.79,299.49L175.08,7.25h339.89M515.54,6.25H174.49S7.63,299.49,7.63,299.49l169.3,293.24h338.6s169.3-293.24,169.3-293.24L515.54,6.25h0Z"/>
  </g>
  <g>
    <polygon class="cls-4" points="190.06 569.23 34.32 299.49 187.81 29.75 501.53 29.75 657.27 299.49 501.53 569.23 190.06 569.23"/>
    <path class="cls-2" d="M501.24,30.25l155.45,269.24-155.45,269.24H190.35S34.9,299.49,34.9,299.49L188.1,30.25h313.14M501.82,29.25H187.52S33.75,299.49,33.75,299.49l156.02,270.24h312.05s156.02-270.24,156.02-270.24L501.82,29.25h0Z"/>
  </g>
  <g>
    <polygon class="cls-1" points="194.51 562.48 43.32 300.61 192.33 38.75 496.89 38.75 648.08 300.61 496.89 562.48 194.51 562.48"/>
    <path class="cls-2" d="M496.6,39.25l150.9,261.37-150.9,261.37H194.8S43.9,300.61,43.9,300.61L192.62,39.25h303.98M497.18,38.25H192.04S42.75,300.61,42.75,300.61l151.48,262.37h302.96s151.48-262.37,151.48-262.37L497.18,38.25h0Z"/>
  </g>
  <g>
    <polygon class="cls-5" points="208.52 539.98 70.32 300.61 206.53 61.25 484.92 61.25 623.12 300.61 484.92 539.98 208.52 539.98"/>
    <path class="cls-2" d="M484.63,61.75l137.91,238.87-137.91,238.87H208.81s-137.91-238.87-137.91-238.87L206.82,61.75h277.81M485.21,60.75H206.24s-136.49,239.87-136.49,239.87l138.49,239.87h276.98s138.49-239.87,138.49-239.87L485.21,60.75h0Z"/>
  </g>
  <text class="cls-6" transform="translate(262.03 251.73)"><tspan x="0" y="0">{ }</tspan><tspan x="-48.03" y="194.39">API</tspan></text>
  <rect class="cls-3" x="72.88" y="299.23" width="548.97" height="2.25"/>
  <rect class="cls-3" x="617.35" y="301.48" width="2.25" height="0"/>
</svg>